<svg width="29" height="30" viewBox="0 0 29 30" fill="none" xmlns="http://www.w3.org/2000/svg">
<path d="M27.26 3.45992H15.08V0.576653C15.08 0.423715 15.0189 0.277041 14.9101 0.168898C14.8014 0.0607544 14.6538 0 14.5 0C14.3462 0 14.1986 0.0607544 14.0899 0.168898C13.9811 0.277041 13.92 0.423715 13.92 0.576653V3.45992H1.74C1.27852 3.45992 0.835948 3.64218 0.509634 3.96661C0.183321 4.29104 0 4.73106 0 5.18988V22.4895C0 22.9483 0.183321 23.3883 0.509634 23.7127C0.835948 24.0372 1.27852 24.2194 1.74 24.2194H8.6536L4.7676 29.0489C4.71715 29.1076 4.67908 29.1758 4.65566 29.2495C4.63224 29.3231 4.62394 29.4007 4.63125 29.4776C4.63856 29.5545 4.66134 29.6292 4.69823 29.6972C4.73512 29.7651 4.78537 29.8251 4.846 29.8734C4.90663 29.9217 4.9764 29.9574 5.05117 29.9783C5.12594 29.9993 5.20419 30.0051 5.28127 29.9955C5.35835 29.9858 5.43269 29.9608 5.49988 29.922C5.56707 29.8833 5.62574 29.8315 5.6724 29.7697L10.1384 24.2194H18.8616L23.3276 29.7697C23.4255 29.8836 23.5641 29.9552 23.7141 29.9693C23.8641 29.9834 24.0138 29.9389 24.1314 29.8453C24.2489 29.7516 24.3253 29.6161 24.3441 29.4674C24.363 29.3188 24.3229 29.1687 24.2324 29.0489L20.3464 24.2194H27.26C27.7215 24.2194 28.1641 24.0372 28.4904 23.7127C28.8167 23.3883 29 22.9483 29 22.4895V5.18988C29 4.73106 28.8167 4.29104 28.4904 3.96661C28.1641 3.64218 27.7215 3.45992 27.26 3.45992ZM27.84 22.4895C27.84 22.6424 27.7789 22.7891 27.6701 22.8972C27.5614 23.0054 27.4138 23.0661 27.26 23.0661H1.74C1.58617 23.0661 1.43865 23.0054 1.32988 22.8972C1.22111 22.7891 1.16 22.6424 1.16 22.4895V5.18988C1.16 5.03694 1.22111 4.89026 1.32988 4.78212C1.43865 4.67398 1.58617 4.61322 1.74 4.61322H27.26C27.4138 4.61322 27.5614 4.67398 27.6701 4.78212C27.7789 4.89026 27.84 5.03694 27.84 5.18988V22.4895ZM10.44 14.4163V17.8762C10.44 18.0292 10.3789 18.1758 10.2701 18.284C10.1614 18.3921 10.0138 18.4529 9.86 18.4529C9.70617 18.4529 9.55865 18.3921 9.44988 18.284C9.34111 18.1758 9.28 18.0292 9.28 17.8762V14.4163C9.28 14.2634 9.34111 14.1167 9.44988 14.0086C9.55865 13.9004 9.70617 13.8397 9.86 13.8397C10.0138 13.8397 10.1614 13.9004 10.2701 14.0086C10.3789 14.1167 10.44 14.2634 10.44 14.4163ZM15.08 12.1097V17.8762C15.08 18.0292 15.0189 18.1758 14.9101 18.284C14.8014 18.3921 14.6538 18.4529 14.5 18.4529C14.3462 18.4529 14.1986 18.3921 14.0899 18.284C13.9811 18.1758 13.92 18.0292 13.92 17.8762V12.1097C13.92 11.9568 13.9811 11.8101 14.0899 11.702C14.1986 11.5938 14.3462 11.5331 14.5 11.5331C14.6538 11.5331 14.8014 11.5938 14.9101 11.702C15.0189 11.8101 15.08 11.9568 15.08 12.1097ZM19.72 9.8031V17.8762C19.72 18.0292 19.6589 18.1758 19.5501 18.284C19.4414 18.3921 19.2938 18.4529 19.14 18.4529C18.9862 18.4529 18.8386 18.3921 18.7299 18.284C18.6211 18.1758 18.56 18.0292 18.56 17.8762V9.8031C18.56 9.65016 18.6211 9.50349 18.7299 9.39534C18.8386 9.2872 18.9862 9.22645 19.14 9.22645C19.2938 9.22645 19.4414 9.2872 19.5501 9.39534C19.6589 9.50349 19.72 9.65016 19.72 9.8031Z" fill="black"/>
</svg>
